<svg width="75" height="75" viewBox="0 0 75 75" fill="none" xmlns="http://www.w3.org/2000/svg">
<g id="Group 1000001767">
<path id="Vector (Stroke)" fill-rule="evenodd" clip-rule="evenodd" d="M3.66116 2.9955C6.00537 1.07751 9.18479 0 12.5 0H50C51.1051 0 52.1649 0.359171 52.9463 0.9985L73.7796 18.044C74.561 18.6833 75 19.5504 75 20.4545V64.7727C75 67.4852 73.683 70.0865 71.3388 72.0045C68.9946 73.9225 65.8152 75 62.5 75H37.5C35.1988 75 33.3333 73.4737 33.3333 71.5909C33.3333 69.7081 35.1988 68.1818 37.5 68.1818H62.5C63.6051 68.1818 64.6649 67.8227 65.4463 67.1833C66.2277 66.544 66.6667 65.6769 66.6667 64.7727V21.8666L48.2741 6.81818H12.5C11.3949 6.81818 10.3351 7.17735 9.55372 7.81668C8.77232 8.45601 8.33333 9.32312 8.33333 10.2273V44.3182C8.33333 46.201 6.46785 47.7273 4.16667 47.7273C1.86548 47.7273 0 46.201 0 44.3182V10.2273C0 7.51483 1.31696 4.91348 3.66116 2.9955Z" fill="#1B1F2D"/>
<path id="Vector (Stroke)_2" fill-rule="evenodd" clip-rule="evenodd" d="M45.8346 0C48.1358 0 50.0013 1.5263 50.0013 3.40909V17.0455C50.0013 17.9496 50.4403 18.8167 51.2217 19.456C52.0031 20.0954 53.0629 20.4545 54.168 20.4545H70.8346C73.1358 20.4545 75.0013 21.9808 75.0013 23.8636C75.0013 25.7464 73.1358 27.2727 70.8346 27.2727H54.168C50.8528 27.2727 47.6733 26.1952 45.3291 24.2772C42.9849 22.3592 41.668 19.7579 41.668 17.0455V3.40909C41.668 1.5263 43.5334 0 45.8346 0Z" fill="#1B1F2D"/>
<path id="Vector (Stroke)_3" fill-rule="evenodd" clip-rule="evenodd" d="M37.0834 40.8358C35.8443 40.8358 34.6559 41.2385 33.7797 41.9554L12.0958 59.6968L9.89329 66.9049L18.7032 65.1029L40.3871 47.3615C41.2633 46.6446 41.7556 45.6723 41.7556 44.6584C41.7556 43.6446 41.2633 42.6723 40.3871 41.9554C39.5109 41.2385 38.3226 40.8358 37.0834 40.8358ZM27.8871 37.1342C30.3261 35.1387 33.6341 34.0176 37.0834 34.0176C40.5327 34.0176 43.8407 35.1387 46.2797 37.1342C48.7187 39.1298 50.0889 41.8363 50.0889 44.6584C50.0889 47.4806 48.7187 50.1871 46.2797 52.1827L23.7797 70.5918C23.2457 71.0287 22.5766 71.3386 21.844 71.4885L5.17732 74.8976C3.75742 75.188 2.25539 74.8476 1.22048 74.0008C0.185559 73.1541 -0.230479 71.9252 0.124495 70.7634L4.29116 57.1271C4.47432 56.5276 4.85315 55.9802 5.38714 55.5433L27.8871 37.1342Z" fill="#1B1F2D"/>
</g>
</svg>
