<svg width="120" height="29" viewBox="0 0 120 29" fill="none" xmlns="http://www.w3.org/2000/svg">
<g id="Group">
<path id="Vector" d="M18.0079 22.8576C18.0079 26.1893 15.3669 28.112 10.306 28.112H0.344238V8.85156H9.75345C14.5658 8.85156 17.0465 10.8627 17.0465 13.8573C17.0465 15.7855 16.0576 17.2663 14.4884 18.095C16.6322 18.7801 18.0079 20.4321 18.0079 22.8521V22.8576ZM4.77535 12.2108V16.7524H9.20646C11.3778 16.7524 12.5602 15.9844 12.5602 14.4706C12.5602 12.9567 11.3778 12.2163 9.20646 12.2163H4.77535V12.2108ZM13.5215 22.388C13.5215 20.7636 12.2839 19.9956 9.97445 19.9956H4.77535V24.7527H9.97445C12.2839 24.7527 13.5215 24.04 13.5215 22.388Z" fill="#AF8E6D"/>
<path id="Vector_2" d="M34.6218 23.9845H25.6823L23.975 28.1118H19.4058L27.9917 8.85133H32.3952L41.0088 28.1118H36.3346L34.6274 23.9845H34.6218ZM26.7817 4.03899C26.7817 2.19361 28.2404 0.712891 30.1631 0.712891C32.0858 0.712891 33.5997 2.19913 33.5997 4.03899C33.5997 5.87884 32.1134 7.37061 30.1631 7.37061C28.2127 7.37061 26.7817 5.91199 26.7817 4.03899ZM33.2185 20.6032L30.1631 13.2272L27.1077 20.6032H33.2129H33.2185ZM28.5166 4.03899C28.5166 5.00035 29.2293 5.71861 30.1686 5.71861C31.1079 5.71861 31.8482 5.00035 31.8482 4.03899C31.8482 3.07762 31.1355 2.35936 30.1686 2.35936C29.2625 2.35936 28.5166 3.0721 28.5166 4.03899Z" fill="#AF8E6D"/>
<path id="Vector_3" d="M43.5615 8.85123H48.0203V24.4762H57.6781V28.1061H43.5671V8.8457L43.5615 8.85123Z" fill="#AF8E6D"/>
<path id="Vector_4" d="M59.1035 26.2113L60.6174 22.8521C62.2418 24.0344 64.6617 24.8632 66.9712 24.8632C69.6122 24.8632 70.6841 23.9847 70.6841 22.8023C70.6841 19.2 59.4847 21.6752 59.4847 14.5203C59.4847 11.2439 62.1257 8.52002 67.6011 8.52002C70.0211 8.52002 72.4963 9.10015 74.2864 10.2273L72.9107 13.6086C71.1206 12.592 69.2807 12.0947 67.5735 12.0947C64.9325 12.0947 63.9159 13.0837 63.9159 14.2937C63.9159 17.8408 75.1152 15.3932 75.1152 22.4653C75.1152 25.6864 72.4466 28.4379 66.9436 28.4379C63.8882 28.4379 60.8108 27.5318 59.1035 26.2113Z" fill="#AF8E6D"/>
<path id="Vector_5" d="M82.4305 12.4869H76.27V8.85693H93.0497V12.4869H86.8892V28.1118H82.4305V12.4869Z" fill="#AF8E6D"/>
<path id="Vector_6" d="M95.9946 8.85156H100.453V28.112H95.9946V8.85156Z" fill="#AF8E6D"/>
<path id="Vector_7" d="M105.569 8.85123H110.028V24.4762H119.686V28.1061H105.575V8.8457L105.569 8.85123Z" fill="#AF8E6D"/>
</g>
</svg>
