<svg width="41" height="42" viewBox="0 0 41 42" fill="none" xmlns="http://www.w3.org/2000/svg">
<g id="Group">
<path id="Vector" d="M29.8745 41.1506H22.6754C22.6533 27.4374 10.5534 13.7186 10.5312 0.00537109H17.8741C17.852 13.7186 29.8967 27.4374 29.8745 41.1506Z" fill="#AF8E6D"/>
<path id="Vector_2" d="M40.3439 0.00537109V41.1506H33.0839C33.0839 40.9296 33.0839 40.7307 33.0618 40.5152C32.6861 27.0285 20.9674 13.4976 20.9453 0.0108974H28.2881C28.2881 5.93931 30.5148 11.8456 33.0618 17.7795V0.0108974H40.3439V0.00537109Z" fill="#AF8E6D"/>
<path id="Vector_3" d="M19.3544 41.1453H12.1552C12.1331 35.2169 9.84569 29.2663 7.28205 23.3214V41.1453H0V0H7.34283C7.32073 13.7077 19.3764 27.4375 19.3599 41.1453H19.3544Z" fill="#AF8E6D"/>
<path id="Vector_4" d="M33.0846 41.1452H33.0625V40.5098C33.0846 40.7308 33.0846 40.9297 33.0846 41.1452Z" fill="#AF8E6D"/>
</g>
</svg>
