<svg width="80" height="80" viewBox="0 0 80 80" fill="none" xmlns="http://www.w3.org/2000/svg">
<g id="Frame">
<path id="Vector (Stroke)" fill-rule="evenodd" clip-rule="evenodd" d="M55.1925 10.0934C53.5826 9.91145 51.9457 9.96418 50.3335 10.2579C47.0004 10.8652 43.9316 12.4739 41.5359 14.8695C39.1403 17.2652 37.5316 20.334 36.9243 23.6671C36.317 27.0002 36.7399 30.4392 38.1367 33.5259C38.7087 34.7899 38.4379 36.2761 37.4569 37.2571L14.4235 60.2905C13.7226 60.9914 13.3288 61.9421 13.3288 62.9334C13.3288 63.9247 13.7226 64.8754 14.4235 65.5764C15.1245 66.2774 16.0752 66.6712 17.0665 66.6712C18.0578 66.6712 19.0085 66.2774 19.7095 65.5764L42.7428 42.5431C43.7239 41.562 45.21 41.2912 46.4741 41.8632C49.5607 43.26 52.9997 43.6829 56.3328 43.0756C59.6659 42.4683 62.7348 40.8597 65.1304 38.464C67.5261 36.0684 69.1347 32.9995 69.742 29.6664C70.0358 28.0542 70.0885 26.4173 69.9066 24.8074L61.3333 33.3807C60.0871 34.6022 58.4115 35.2863 56.6665 35.2863C54.9215 35.2863 53.246 34.6021 51.9998 33.3806L51.976 33.3572L46.6193 28.0002C45.3977 26.754 44.7136 25.0785 44.7136 23.3334C44.7136 21.5884 45.3979 19.913 46.6194 18.6668L46.6427 18.643L55.1925 10.0934ZM49.1385 3.69923C53.8048 2.84901 58.6195 3.44109 62.9408 5.39656C63.9377 5.84769 64.6497 6.7594 64.8458 7.83593C65.042 8.91246 64.6973 10.0167 63.9235 10.7905L51.3806 23.3334L56.6665 28.6194L69.2095 16.0764C69.9832 15.3027 71.0875 14.9579 72.164 15.1541C73.2405 15.3502 74.1522 16.0623 74.6034 17.0592C76.5588 21.3805 77.1509 26.1951 76.3007 30.8614C75.4505 35.5277 73.1984 39.8241 69.8445 43.1781C66.4905 46.532 62.1941 48.7841 57.5278 49.6343C53.6363 50.3433 49.6417 50.0493 45.9161 48.7979L24.4235 70.2905C22.4723 72.2417 19.8259 73.3378 17.0665 73.3378C14.3071 73.3378 11.6607 72.2417 9.70949 70.2905C7.75828 68.3392 6.66211 65.6928 6.66211 62.9334C6.66211 60.174 7.75828 57.5276 9.70949 55.5764L31.202 34.0839C29.9506 30.3582 29.6566 26.3636 30.3656 22.4721C31.2159 17.8058 33.468 13.5094 36.8219 10.1555C40.1758 6.80157 44.4722 4.54944 49.1385 3.69923Z" fill="#1B1F2D"/>
</g>
</svg>
