<svg width="80" height="80" viewBox="0 0 80 80" fill="none" xmlns="http://www.w3.org/2000/svg">
<g id="Frame">
<path id="Vector (Stroke)" fill-rule="evenodd" clip-rule="evenodd" d="M75.6904 44.3098C76.9921 45.6116 76.9921 47.7221 75.6904 49.0239L62.357 62.3572C61.0553 63.6589 58.9447 63.6589 57.643 62.3572L50.9763 55.6905C49.6746 54.3888 49.6746 52.2782 50.9763 50.9765C52.2781 49.6747 54.3886 49.6747 55.6904 50.9765L60 55.2861L70.9763 44.3098C72.2781 43.0081 74.3886 43.0081 75.6904 44.3098Z" fill="#1B1F2D"/>
<path id="Vector (Stroke)_2" fill-rule="evenodd" clip-rule="evenodd" d="M35.0065 4.67596C36.5249 3.80095 38.2467 3.34033 39.9993 3.34033C41.752 3.34033 43.4739 3.80099 44.9924 4.67607C44.9947 4.6774 44.997 4.67874 44.9993 4.68008L68.3327 18.0134C69.8514 18.8902 71.1128 20.151 71.9904 21.6692C72.868 23.1875 73.3309 24.9098 73.3327 26.6634V33.3335C73.3327 35.1744 71.8403 36.6668 69.9994 36.6668C68.1584 36.6668 66.666 35.1744 66.666 33.3335V26.6702C66.6654 26.0857 66.5111 25.5116 66.2186 25.0055C65.9271 24.5012 65.5085 24.0821 65.0046 23.79C65.0029 23.789 65.0011 23.7879 64.9994 23.7869L41.666 10.4536C41.1593 10.161 40.5845 10.007 39.9993 10.007C39.4142 10.007 38.8394 10.161 38.3327 10.4536L38.3198 10.461L14.9993 23.7869C14.9976 23.7879 14.9958 23.7889 14.9941 23.79C14.4902 24.0821 14.0716 24.5012 13.7801 25.0055C13.4878 25.5112 13.3335 26.0848 13.3327 26.6688V53.3315C13.3335 53.9156 13.4878 54.4891 13.7801 54.9948C14.0716 55.4991 14.4902 55.9182 14.9941 56.2104C14.9958 56.2114 14.9976 56.2124 14.9993 56.2134L38.3327 69.5467C38.8394 69.8393 39.4142 69.9933 39.9993 69.9933C40.5845 69.9933 41.1593 69.8393 41.666 69.5467L41.682 69.5375L48.3487 65.7376C49.948 64.8259 51.9836 65.3834 52.8953 66.9828C53.8069 68.5822 53.2494 70.6178 51.65 71.5294L44.9993 75.3202C44.9963 75.322 44.9933 75.3237 44.9903 75.3255C43.4723 76.1998 41.7512 76.66 39.9993 76.66C38.2464 76.66 36.5242 76.1992 35.0055 75.3238C35.0035 75.3226 35.0014 75.3214 34.9993 75.3202L11.6789 61.9943L11.666 61.9869C10.1473 61.1101 8.88592 59.8493 8.00832 58.3311C7.13073 56.8129 6.66781 55.0905 6.66602 53.3369V26.6634C6.66781 24.9098 7.13073 23.1875 8.00832 21.6692C8.88592 20.151 10.1473 18.8902 11.666 18.0134L11.6789 18.006L35.0065 4.67596Z" fill="#1B1F2D"/>
<path id="Vector (Stroke)_3" fill-rule="evenodd" clip-rule="evenodd" d="M22.1068 12.5778C23.0211 10.9799 25.0576 10.4258 26.6554 11.3402L56.6554 28.5068C58.2533 29.4212 58.8074 31.4577 57.8931 33.0555C56.9787 34.6534 54.9422 35.2075 53.3444 34.2931L23.3444 17.1265C21.7465 16.2121 21.1924 14.1756 22.1068 12.5778Z" fill="#1B1F2D"/>
<path id="Vector (Stroke)_4" fill-rule="evenodd" clip-rule="evenodd" d="M8.07584 21.6739C8.99236 20.0773 11.0296 19.526 12.6262 20.4425L40 36.1566L67.3739 20.4425C68.9704 19.526 71.0077 20.0773 71.9242 21.6739C72.8408 23.2705 72.2895 25.3078 70.6929 26.2243L41.6596 42.8909C40.6319 43.4809 39.3682 43.4809 38.3405 42.8909L9.3072 26.2243C7.71061 25.3078 7.15932 23.2705 8.07584 21.6739Z" fill="#1B1F2D"/>
<path id="Vector (Stroke)_5" fill-rule="evenodd" clip-rule="evenodd" d="M39.9993 36.6665C41.8403 36.6665 43.3327 38.1589 43.3327 39.9998V73.3332C43.3327 75.1741 41.8403 76.6665 39.9993 76.6665C38.1584 76.6665 36.666 75.1741 36.666 73.3332V39.9998C36.666 38.1589 38.1584 36.6665 39.9993 36.6665Z" fill="#1B1F2D"/>
</g>
</svg>
