<svg width="80" height="80" viewBox="0 0 80 80" fill="none" xmlns="http://www.w3.org/2000/svg">
<g id="Frame">
<path id="Vector (Stroke)" fill-rule="evenodd" clip-rule="evenodd" d="M13.334 10.0002C11.5083 10.0002 10.0007 11.5078 10.0007 13.3335V41.9528L17.6436 34.3098C18.2688 33.6847 19.1166 33.3335 20.0007 33.3335H40.0006C40.8847 33.3335 41.7325 32.9823 42.3577 32.3572C42.9828 31.7321 43.334 30.8842 43.334 30.0002V13.3335C43.334 12.4494 42.9828 11.6016 42.3577 10.9765C41.7326 10.3514 40.8847 10.0002 40.0006 10.0002H13.334ZM3.33398 13.3335C3.33398 7.82588 7.82637 3.3335 13.334 3.3335H40.0006C42.6528 3.3335 45.1964 4.38706 47.0717 6.26243C48.9471 8.13779 50.0006 10.6813 50.0006 13.3335V30.0002C50.0006 32.6523 48.9471 35.1959 47.0717 37.0712C45.1964 38.9466 42.6528 40.0002 40.0006 40.0002H21.3814L9.02434 52.3572C8.07101 53.3105 6.63729 53.5957 5.39171 53.0798C4.14612 52.5638 3.33398 51.3484 3.33398 50.0002V13.3335Z" fill="#1B1F2D"/>
<path id="Vector (Stroke)_2" fill-rule="evenodd" clip-rule="evenodd" d="M56.6667 29.9998C56.6667 28.1589 58.159 26.6665 60 26.6665H66.6667C69.3188 26.6665 71.8624 27.7201 73.7377 29.5954C75.6131 31.4708 76.6667 34.0143 76.6667 36.6665V73.3332C76.6667 74.6814 75.8545 75.8968 74.6089 76.4128C73.3634 76.9287 71.9296 76.6435 70.9763 75.6902L58.6193 63.3332H40C37.3478 63.3332 34.8043 62.2796 32.9289 60.4042C31.0536 58.5289 30 55.9853 30 53.3332V49.9998C30 48.1589 31.4924 46.6665 33.3333 46.6665C35.1743 46.6665 36.6667 48.1589 36.6667 49.9998V53.3332C36.6667 54.2172 37.0179 55.0651 37.643 55.6902C38.2681 56.3153 39.1159 56.6665 40 56.6665H60C60.8841 56.6665 61.7319 57.0177 62.357 57.6428L70 65.2858V36.6665C70 35.7825 69.6488 34.9346 69.0237 34.3095C68.3986 33.6844 67.5507 33.3332 66.6667 33.3332H60C58.159 33.3332 56.6667 31.8408 56.6667 29.9998Z" fill="#1B1F2D"/>
</g>
</svg>
