<svg width="26" height="31" viewBox="0 0 26 31" fill="none" xmlns="http://www.w3.org/2000/svg">
<g id="Group 26">
<path id="Union (Stroke)" fill-rule="evenodd" clip-rule="evenodd" d="M12.0945 2.6291C11.2401 3.18783 9.20072 4.63073 7.21761 6.84855C4.78199 9.57243 2.48454 13.4036 2.48454 18.1603C2.48454 19.5392 2.75653 20.9046 3.28498 22.1785C3.81343 23.4525 4.58799 24.61 5.56444 25.585C6.54089 26.5601 7.70011 27.3335 8.97591 27.8612C10.2517 28.3889 11.6191 28.6605 13 28.6605C14.3809 28.6605 15.7483 28.3889 17.0241 27.8612C18.2999 27.3335 19.4591 26.5601 20.4356 25.585C21.412 24.61 22.1866 23.4525 22.715 22.1785C23.0563 21.3557 23.2906 20.4948 23.4138 19.6167C23.4296 19.5043 23.4673 19.4052 23.5155 19.3216V18.1586C23.5155 11.4831 20.3011 7.50155 19.0619 6.21468C18.7749 6.51287 18.3812 6.95624 17.946 7.5445C17.6105 7.99803 16.9299 7.9812 16.614 7.52045C14.8499 4.94746 12.9056 3.27106 12.0945 2.6291ZM11.7136 1.11617C12.0167 0.93406 12.3652 0.980513 12.6069 1.15534C12.9493 1.40295 15.1722 3.06254 17.3137 5.94711C17.9022 5.23916 18.3629 4.81432 18.5245 4.67189C18.8014 4.42794 19.2597 4.37317 19.5966 4.66963C20.1773 5.18062 25 9.67794 25 18.1586V19.3939C25 19.5957 24.951 19.7873 24.8644 19.9564C24.7193 20.912 24.4587 21.8488 24.0866 22.7458C23.4835 24.1996 22.5996 25.5205 21.4853 26.6332C20.371 27.7459 19.0481 28.6286 17.5922 29.2307C16.1363 29.8329 14.5759 30.1429 13 30.1429C11.4241 30.1429 9.86371 29.8329 8.4078 29.2307C6.95189 28.6286 5.62902 27.7459 4.51472 26.6332C3.40042 25.5205 2.5165 24.1996 1.91345 22.7458C1.31039 21.292 1 19.7338 1 18.1603C1 12.9054 3.53909 8.73671 6.11025 5.86125C8.68272 2.98432 11.3406 1.34032 11.7136 1.11617Z" fill="#1B1F2D" stroke="#1B1F2D" stroke-linejoin="round"/>
<g id="Union (Stroke)_2">
<path fill-rule="evenodd" clip-rule="evenodd" d="M12.9998 14.6726C12.418 15.1378 11.3416 16.0621 10.3021 17.2906C8.89104 18.9581 7.64311 21.0741 7.63868 23.2933C7.63875 23.2973 7.63878 23.3012 7.63878 23.3052C7.63903 26.2576 10.0391 28.6509 12.9998 28.6509C15.9606 28.6509 18.3608 26.2573 18.3608 23.3047C18.3608 23.2646 18.3603 23.2247 18.3595 23.1848L18.3594 23.1836C18.3147 20.9833 17.0608 18.8907 15.6592 17.2457C14.6316 16.0396 13.5744 15.1321 12.9998 14.6726ZM13.0006 13C13.2038 13.0002 13.3683 13.0758 13.4821 13.1592C13.763 13.3652 15.3064 14.5274 16.7994 16.2797C18.2778 18.0149 19.7996 20.4367 19.8552 23.1524C19.8563 23.203 19.8569 23.2538 19.8569 23.3047C19.8569 27.0813 16.7868 30.1429 12.9998 30.1429C9.21736 30.1429 6.15024 27.0888 6.1427 23.3186C6.14262 23.3141 6.14258 23.3096 6.14258 23.3051C6.1426 20.5517 7.66743 18.0907 9.15871 16.3284C10.6648 14.5486 12.2344 13.3667 12.5175 13.1591C12.632 13.0752 12.7972 12.9998 13.0006 13ZM6.89068 24.0512C6.68842 24.0512 6.50774 23.9722 6.37464 23.8453C6.50862 23.9727 6.69011 24.0512 6.89068 24.0512ZM19.8552 23.1524C19.8552 23.1527 19.8552 23.153 19.8552 23.1534L19.1073 23.1685L19.8552 23.1521C19.8552 23.1522 19.8552 23.1523 19.8552 23.1524Z" fill="#1B1F2D"/>
<path d="M19.8552 23.1524C19.7996 20.4367 18.2777 18.0149 16.7994 16.2797C15.3064 14.5274 13.763 13.3652 13.4821 13.1592C13.3683 13.0758 13.2038 13.0002 13.0006 13C12.7972 12.9998 12.632 13.0752 12.5175 13.1591C12.2344 13.3667 10.6648 14.5486 9.15871 16.3284C7.66743 18.0907 6.1426 20.5517 6.14258 23.3051C6.14258 23.3096 6.14262 23.3141 6.1427 23.3186C6.15024 27.0888 9.21736 30.1429 12.9998 30.1429C16.7868 30.1429 19.8569 27.0813 19.8569 23.3047C19.8569 23.2538 19.8563 23.203 19.8552 23.1524ZM19.8552 23.1524C19.8552 23.1527 19.8552 23.153 19.8552 23.1534L19.1073 23.1685L19.8552 23.1521C19.8552 23.1522 19.8552 23.1523 19.8552 23.1524ZM10.3021 17.2906C11.3416 16.0621 12.418 15.1378 12.9998 14.6726C13.5744 15.1321 14.6316 16.0396 15.6592 17.2457C17.0608 18.8907 18.3147 20.9833 18.3594 23.1836L18.3595 23.1848C18.3603 23.2247 18.3608 23.2646 18.3608 23.3047C18.3608 26.2573 15.9606 28.6509 12.9998 28.6509C10.0391 28.6509 7.63903 26.2576 7.63878 23.3052C7.63878 23.3012 7.63875 23.2973 7.63868 23.2933C7.64311 21.0741 8.89104 18.9581 10.3021 17.2906ZM6.89068 24.0512C6.68842 24.0512 6.50774 23.9722 6.37464 23.8453C6.50862 23.9727 6.69011 24.0512 6.89068 24.0512Z" stroke="#1B1F2D" stroke-linejoin="round"/>
</g>
</g>
</svg>
