<svg width="145" height="35" viewBox="0 0 145 35" fill="none" xmlns="http://www.w3.org/2000/svg">
<path d="M21 29.7122V3.14282C21 2.59054 20.5523 2.14282 20 2.14282H2.01923C1.45949 2.14282 1.00875 2.60223 1.01941 3.16187L1.52636 29.7769C1.5432 30.6608 2.61455 31.0897 3.23666 30.4616L10.5752 23.0524C10.9665 22.6574 11.6049 22.6574 11.9962 23.0524L19.2895 30.4159C19.9181 31.0505 21 30.6054 21 29.7122Z" stroke="#404354" stroke-width="2"/>
<path d="M74.25 28.4761C74.25 26.2217 73.3281 24.0597 71.6872 22.4657C70.0462 20.8716 67.8206 19.9761 65.5 19.9761C63.1794 19.9761 60.9538 20.8716 59.3128 22.4657C57.6719 24.0597 56.75 26.2217 56.75 28.4761" stroke="#404354" stroke-width="2" stroke-linecap="round" stroke-linejoin="round"/>
<path d="M65.4998 19.9762C68.7215 19.9762 71.3332 17.4391 71.3332 14.3095C71.3332 11.1799 68.7215 8.64282 65.4998 8.64282C62.2782 8.64282 59.6665 11.1799 59.6665 14.3095C59.6665 17.4391 62.2782 19.9762 65.4998 19.9762Z" stroke="#404354" stroke-width="2" stroke-linecap="round" stroke-linejoin="round"/>
<path d="M65.4998 31.3094C73.554 31.3094 80.0832 24.9668 80.0832 17.1427C80.0832 9.31871 73.554 2.97607 65.4998 2.97607C57.4457 2.97607 50.9165 9.31871 50.9165 17.1427C50.9165 24.9668 57.4457 31.3094 65.4998 31.3094Z" stroke="#404354" stroke-width="2" stroke-linecap="round" stroke-linejoin="round"/>
<path d="M118.494 2.85718L114.208 8.57146V28.5715C114.208 29.3292 114.509 30.056 115.045 30.5918C115.581 31.1276 116.307 31.4286 117.065 31.4286H137.065C137.823 31.4286 138.55 31.1276 139.085 30.5918C139.621 30.056 139.922 29.3292 139.922 28.5715V8.57146L135.637 2.85718H118.494Z" stroke="#404354" stroke-width="2" stroke-linecap="round" stroke-linejoin="round"/>
<path d="M114.208 8.57153H139.922" stroke="#404354" stroke-width="2" stroke-linecap="round" stroke-linejoin="round"/>
<path d="M132.78 14.2856C132.78 15.8012 132.178 17.2546 131.106 18.3263C130.034 19.3979 128.581 19.9999 127.065 19.9999C125.55 19.9999 124.096 19.3979 123.025 18.3263C121.953 17.2546 121.351 15.8012 121.351 14.2856" stroke="#404354" stroke-width="2" stroke-linecap="round" stroke-linejoin="round"/>
</svg>
