<svg width="295" height="65" viewBox="0 0 295 65" fill="none" xmlns="http://www.w3.org/2000/svg">
<path d="M123.639 46.0355C123.639 51.298 119.188 54.335 110.659 54.335H93.8701V23.9121H109.728C117.838 23.9121 122.019 27.0888 122.019 31.8189C122.019 34.8647 120.352 37.2036 117.708 38.5127C121.321 39.5948 123.639 42.2043 123.639 46.0268V46.0355ZM101.338 29.2182V36.392H108.806C112.465 36.392 114.458 35.1789 114.458 32.7876C114.458 30.3964 112.465 29.227 108.806 29.227H101.338V29.2182ZM116.078 45.2937C116.078 42.7279 113.992 41.5148 110.1 41.5148H101.338V49.0289H110.1C113.992 49.0289 116.078 47.9031 116.078 45.2937Z" fill="#1B1F2D"/>
<path d="M151.639 47.816H136.573L133.696 54.3352H125.995L140.465 23.9123H147.887L162.403 54.3352H154.526L151.649 47.816H151.639ZM138.426 16.3109C138.426 13.396 140.884 11.0571 144.125 11.0571C147.365 11.0571 149.917 13.4047 149.917 16.3109C149.917 19.217 147.412 21.5734 144.125 21.5734C140.838 21.5734 138.426 19.2694 138.426 16.3109ZM149.274 42.475L144.125 30.8242L138.975 42.475H149.265H149.274ZM141.35 16.3109C141.35 17.8294 142.551 18.9639 144.134 18.9639C145.717 18.9639 146.965 17.8294 146.965 16.3109C146.965 14.7924 145.764 13.6578 144.134 13.6578C142.607 13.6578 141.35 14.7836 141.35 16.3109Z" fill="#1B1F2D"/>
<path d="M166.705 23.912H174.22V48.5925H190.496V54.3262H166.715V23.9033L166.705 23.912Z" fill="#1B1F2D"/>
<path d="M192.899 51.3331L195.45 46.027C198.188 47.8946 202.266 49.2037 206.158 49.2037C210.609 49.2037 212.416 47.816 212.416 45.9484C212.416 40.2583 193.541 44.1681 193.541 32.8664C193.541 27.6912 197.992 23.3887 207.22 23.3887C211.298 23.3887 215.47 24.305 218.487 26.0854L216.168 31.4264C213.151 29.8206 210.051 29.0352 207.173 29.0352C202.722 29.0352 201.009 30.5973 201.009 32.5086C201.009 38.1114 219.884 34.2453 219.884 45.4161C219.884 50.504 215.386 54.8501 206.112 54.8501C200.963 54.8501 195.776 53.4189 192.899 51.3331Z" fill="#1B1F2D"/>
<path d="M232.212 29.6547H221.83V23.9209H250.109V29.6547H239.726V54.3351H232.212V29.6547Z" fill="#1B1F2D"/>
<path d="M255.072 23.9121H262.587V54.335H255.072V23.9121Z" fill="#1B1F2D"/>
<path d="M271.209 23.912H278.723V48.5925H295V54.3262H271.218V23.9033L271.209 23.912Z" fill="#1B1F2D"/>
<path d="M50.3476 65.0001H38.2146C38.1774 43.3392 17.785 21.6696 17.7478 0.00878906H30.1229C30.0856 21.6696 50.3849 43.3392 50.3476 65.0001Z" fill="#1B1F2D"/>
<path d="M67.993 0.00878906V65.0001H55.7576C55.7576 64.651 55.7576 64.3368 55.7203 63.9964C55.0871 42.6934 35.3373 21.3205 35.3 0.0175181H47.6751C47.6751 9.38177 51.4277 18.7111 55.7203 28.0841V0.0175181H67.993V0.00878906Z" fill="#1B1F2D"/>
<path d="M32.6184 64.9913H20.4855C20.4482 55.627 16.5932 46.2278 12.2727 36.8374V64.9913H0V0H12.3751C12.3378 21.6521 32.6557 43.3392 32.6277 64.9913H32.6184Z" fill="#1B1F2D"/>
<path d="M55.7577 64.9914H55.7205V63.9878C55.7577 64.3369 55.7577 64.6511 55.7577 64.9914Z" fill="#1B1F2D"/>
</svg>
