<svg width="187" height="42" viewBox="0 0 187 42" fill="none" xmlns="http://www.w3.org/2000/svg">
<path d="M78.2529 29.1447C78.2529 32.4764 75.4358 34.3991 70.0375 34.3991H59.4116V15.1387H69.4481C74.5813 15.1387 77.2274 17.1498 77.2274 20.1444C77.2274 22.0726 76.1725 23.5534 74.4988 24.3821C76.7854 25.0672 78.2529 26.7192 78.2529 29.1392V29.1447ZM64.1381 18.4979V23.0395H68.8647C71.1808 23.0395 72.442 22.2715 72.442 20.7577C72.442 19.2438 71.1808 18.5034 68.8647 18.5034H64.1381V18.4979ZM73.4674 28.6751C73.4674 27.0507 72.1473 26.2828 69.6838 26.2828H64.1381V31.0399H69.6838C72.1473 31.0399 73.4674 30.3271 73.4674 28.6751Z" fill="#AF8E6D"/>
<path d="M95.9744 30.2716H86.4388L84.6177 34.3989H79.7439L88.9023 15.1384H93.5993L102.787 34.3989H97.8013L95.9803 30.2716H95.9744ZM87.6116 10.3261C87.6116 8.48072 89.1675 7 91.2184 7C93.2693 7 94.8841 8.48624 94.8841 10.3261C94.8841 12.1659 93.2987 13.6577 91.2184 13.6577C89.138 13.6577 87.6116 12.1991 87.6116 10.3261ZM94.4774 26.8903L91.2184 19.5143L87.9593 26.8903H94.4715H94.4774ZM89.4621 10.3261C89.4621 11.2875 90.2224 12.0057 91.2243 12.0057C92.2262 12.0057 93.0159 11.2875 93.0159 10.3261C93.0159 9.36473 92.2556 8.64647 91.2243 8.64647C90.2577 8.64647 89.4621 9.35921 89.4621 10.3261Z" fill="#AF8E6D"/>
<path d="M105.51 15.1383H110.266V30.7633H120.568V34.3932H105.516V15.1328L105.51 15.1383Z" fill="#AF8E6D"/>
<path d="M122.088 32.4984L123.703 29.1392C125.436 30.3216 128.017 31.1503 130.48 31.1503C133.297 31.1503 134.441 30.2718 134.441 29.0895C134.441 25.4871 122.495 27.9623 122.495 20.8074C122.495 17.531 125.312 14.8071 131.152 14.8071C133.734 14.8071 136.374 15.3873 138.283 16.5144L136.816 19.8957C134.906 18.8791 132.944 18.3819 131.123 18.3819C128.306 18.3819 127.221 19.3708 127.221 20.5808C127.221 24.1279 139.167 21.6803 139.167 28.7524C139.167 31.9735 136.321 34.725 130.451 34.725C127.192 34.725 123.909 33.8189 122.088 32.4984Z" fill="#AF8E6D"/>
<path d="M146.97 18.774H140.399V15.144H158.297V18.774H151.726V34.3989H146.97V18.774Z" fill="#AF8E6D"/>
<path d="M161.438 15.1387H166.194V34.3991H161.438V15.1387Z" fill="#AF8E6D"/>
<path d="M171.652 15.1383H176.408V30.7633H186.709V34.3932H171.658V15.1328L171.652 15.1383Z" fill="#AF8E6D"/>
<path d="M31.8658 41.1506H24.1866C24.1631 27.4374 11.2565 13.7186 11.2329 0.00537109H19.0653C19.0417 13.7186 31.8893 27.4374 31.8658 41.1506Z" fill="#AF8E6D"/>
<path d="M43.0336 0.00537109V41.1506H35.2896C35.2896 40.9296 35.2896 40.7307 35.2661 40.5152C34.8653 27.0285 22.3654 13.4976 22.3418 0.0108974H30.1742C30.1742 5.93931 32.5492 11.8456 35.2661 17.7795V0.0108974H43.0336V0.00537109Z" fill="#AF8E6D"/>
<path d="M20.6446 41.1453H12.9655C12.9419 35.2169 10.5021 29.2663 7.76752 23.3214V41.1453H0V0H7.83235C7.80878 13.7077 20.6682 27.4375 20.6505 41.1453H20.6446Z" fill="#AF8E6D"/>
<path d="M35.2899 41.1452H35.2664V40.5098C35.2899 40.7308 35.2899 40.9297 35.2899 41.1452Z" fill="#AF8E6D"/>
</svg>
